<svg xmlns="http://www.w3.org/2000/svg" viewBox="0 0 124 170" fill="none" stroke-width="1" stroke-linejoin="round" stroke-linecap="round"><rect class="b" x="14" y="160" width="16" height="6" rx="1"/><rect class="b" x="94" y="160" width="16" height="6" rx="1"/><rect class="b" x="4" y="4" width="116" height="156" rx="9"/><rect class="p" x="12" y="12" width="30" height="140" rx="3"/><rect class="p" x="46" y="12" width="30" height="140" rx="3"/><path class="d" d="M17,20 V38 M51,20 V38 M82,10 V154"/><circle class="p" cx="98" cy="22" r="2.2"/><circle class="lit steady" cx="98" cy="22" r="2.2" style="--p:0"/><circle class="p" cx="98" cy="31" r="2.2"/><circle class="lit blink" cx="98" cy="31" r="2.2" style="--p:0"/><circle class="p" cx="98" cy="40" r="2.2"/><circle class="lit blink" cx="98" cy="40" r="2.2" style="--p:0.37"/><rect class="v" x="90" y="70" width="16" height="3" rx="1"/><rect class="v" x="89" y="88" width="18" height="7" rx="1"/><rect class="v" x="92" y="104" width="12" height="5" rx="2.5"/><circle class="p" cx="98" cy="136" r="7"/><circle class="d" cx="98" cy="136" r="2.6"/></svg>
